<svg xmlns="http://www.w3.org/2000/svg" width="32" height="32" viewBox="0 0 32 32" fill="none" stroke="#ff2056" stroke-width="2" stroke-linecap="round" stroke-linejoin="round" class="lucide lucide-brain-icon lucide-brain"><path d="M16 6.667a4 4 0 1 0 -7.996 0.167 5.333 5.333 0 0 0 -3.368 7.693 5.333 5.333 0 0 0 0.741 8.784A5.333 5.333 0 1 0 16 24Z"/><path d="M16 6.667a4 4 0 1 1 7.996 0.167 5.333 5.333 0 0 1 3.368 7.693 5.333 5.333 0 0 1 -0.741 8.784A5.333 5.333 0 1 1 16 24Z"/><path d="M20 17.333a6 6 0 0 1 -4 -5.333 6 6 0 0 1 -4 5.333"/><path d="M23.465 8.667a4 4 0 0 0 0.532 -1.833"/><path d="M8.004 6.833A4 4 0 0 0 8.535 8.667"/><path d="M4.636 14.528a5.333 5.333 0 0 1 0.78 -0.528"/><path d="M26.584 14a5.333 5.333 0 0 1 0.78 0.528"/><path d="M8 24a5.333 5.333 0 0 1 -2.623 -0.688"/><path d="M26.623 23.312A5.333 5.333 0 0 1 24 24"/></svg>